# xmcd CD database file
#
# Track frame offsets:
#	150
#	13585
#	27225
#	42762
#	57835
#	72555
#	84637
#	97132
#	110142
#	124850
#	139647
#	154610
#	165930
#	175735
#
# Disc length: 2469 seconds
#
# Revision: 0
# Processed by: cddbd v1.5.1PL0 Copyright (c) Steve Scherf et al.
# Submitted via: CDex 1.51
#
DISCID=b609a30e
DTITLE=Patsy Riggir - The Best
DYEAR=1987
DGENRE=Country
TTITLE0=Thank God For The Radio
TTITLE1=Lay Down Beside Me
TTITLE2=Beautiful Lady
TTITLE3=The Rugged Cross
TTITLE4=Laying Out On The Line
TTITLE5=I Fall In Love All Over Again
TTITLE6=Touching Me With Love
TTITLE7=Call On Me
TTITLE8=You Remind Me Of A Love Song
TTITLE9=You'll Never Take The Country Out Of Me
TTITLE10=I Wanna Wake Up With You
TTITLE11=Sailor
TTITLE12=Hey Good Looking
TTITLE13=Always
EXTD=YEAR: 1987
EXTT0=
EXTT1=
EXTT2=
EXTT3=
EXTT4=
EXTT5=
EXTT6=
EXTT7=
EXTT8=
EXTT9=
EXTT10=
EXTT11=
EXTT12=
EXTT13=
PLAYORDER=
